<?xml version="1.0" standalone="no"?>
<!DOCTYPE svg PUBLIC "-//W3C//DTD SVG 20010904//EN"
 "http://www.w3.org/TR/2001/REC-SVG-20010904/DTD/svg10.dtd">
<svg version="1.0" xmlns="http://www.w3.org/2000/svg"
 width="1800.000000pt" height="590.000000pt" viewBox="0 0 1800.000000 590.000000"
 preserveAspectRatio="xMidYMid meet">
<metadata>
Created by potrace 1.15, written by Peter Selinger 2001-2017
</metadata>
<g transform="translate(0.000000,590.000000) scale(0.100000,-0.100000)"
fill="#000000" stroke="none">
<path d="M195 5636 c-5 -2 -22 -7 -37 -10 -52 -12 -62 -82 -16 -107 12 -7 94
-15 183 -20 234 -11 342 -44 419 -129 46 -51 64 -92 83 -190 13 -64 17 -302
23 -1570 5 -963 12 -1534 19 -1605 36 -357 86 -592 178 -835 238 -629 749
-1027 1477 -1150 117 -20 154 -21 608 -18 464 3 487 4 588 27 360 80 682 243
963 487 405 352 629 922 672 1714 4 63 8 142 10 175 2 33 4 182 4 331 l1 271
193 31 c232 38 507 75 757 101 289 31 522 48 1033 75 l79 4 -5 -1151 c-3 -634
-8 -1179 -12 -1212 -3 -33 -10 -104 -15 -158 -25 -251 -77 -389 -162 -433 -42
-22 -156 -42 -283 -49 -121 -8 -155 -21 -155 -60 0 -34 31 -62 77 -71 20 -4
191 -3 378 2 386 10 727 11 1391 4 489 -5 505 -4 520 42 8 27 -5 58 -30 68
-12 4 -74 11 -137 14 -343 20 -439 42 -508 122 -71 81 -100 203 -116 499 -3
61 -8 148 -11 195 -3 46 -7 555 -9 1131 -3 799 -1 1050 8 1056 16 12 489 -2
792 -22 720 -48 1298 -110 1910 -203 l180 -28 0 -844 c0 -1087 -10 -1365 -56
-1595 -29 -143 -66 -217 -132 -259 -32 -21 -156 -44 -282 -51 -119 -8 -142
-15 -154 -48 -12 -31 4 -56 47 -74 32 -14 80 -15 387 -7 440 11 829 11 1395 0
398 -8 449 -7 483 7 58 25 67 80 19 106 -10 5 -100 15 -200 21 -310 18 -398
43 -463 132 -53 74 -76 185 -104 503 -13 139 -17 3919 -5 4122 25 430 82 497
448 523 141 10 172 23 172 70 0 21 -8 35 -27 47 -23 15 -52 18 -198 19 -93 0
-253 -3 -355 -7 -186 -8 -823 -11 -870 -5 -14 2 -185 7 -380 11 -376 8 -426 4
-453 -35 -18 -26 -10 -68 16 -82 12 -6 93 -14 182 -19 178 -8 260 -25 348 -72
111 -58 153 -149 171 -372 9 -102 19 -1575 11 -1575 -4 0 -86 13 -183 29 -244
41 -483 75 -772 111 -628 76 -978 99 -1765 114 l-170 4 3 598 c3 797 9 878 67
994 59 116 139 152 382 169 71 5 136 13 146 17 25 9 39 48 27 78 -16 43 -77
49 -396 41 -156 -4 -301 -9 -321 -11 -46 -5 -694 -5 -743 0 -85 9 -701 17
-745 11 -54 -9 -85 -34 -85 -70 0 -46 35 -57 208 -65 284 -14 404 -64 470
-195 51 -103 60 -244 61 -997 1 -559 0 -608 -15 -608 -45 0 -493 -44 -673 -66
-376 -45 -854 -130 -1229 -217 l-142 -34 1 736 c0 405 5 806 10 891 16 261 54
365 156 426 64 38 131 53 291 64 140 9 172 22 172 70 0 21 -8 35 -27 47 -25
17 -53 18 -358 13 -181 -3 -447 -5 -590 -5 -143 0 -418 2 -610 5 -324 5 -353
4 -378 -13 -33 -21 -36 -65 -7 -92 17 -15 46 -20 173 -26 384 -18 483 -105
511 -444 3 -33 8 -463 12 -955 l7 -895 -119 -39 c-320 -104 -691 -248 -1019
-396 -161 -72 -564 -276 -582 -293 -9 -9 -9 -19 2 -44 l14 -32 128 44 c355
121 756 240 1128 334 230 57 418 101 439 101 12 0 0 -767 -14 -965 -51 -675
-224 -1053 -600 -1304 -158 -106 -333 -177 -535 -218 -128 -25 -482 -25 -610
0 -278 56 -498 174 -699 373 -256 255 -386 594 -448 1169 -18 167 -19 3078 -1
3205 24 171 66 252 157 301 61 34 129 48 278 59 139 10 158 18 158 65 0 76
-63 83 -530 66 -287 -11 -844 -15 -930 -7 -57 6 -744 16 -755 12z"/>
<path d="M13893 5629 c-46 -13 -67 -48 -52 -82 6 -14 19 -29 28 -33 9 -4 88
-10 176 -14 178 -9 260 -26 348 -73 111 -58 152 -147 172 -372 3 -33 8 -563
11 -1177 6 -1035 6 -1118 -10 -1118 -57 0 -545 78 -776 124 -313 62 -555 119
-1020 241 -179 47 -328 85 -332 85 -5 0 -8 -108 -8 -240 l0 -239 38 -10 c190
-52 952 -196 1267 -240 242 -35 654 -71 804 -71 l44 0 -7 -672 c-3 -370 -9
-716 -12 -768 -25 -463 -68 -633 -178 -705 -32 -21 -150 -42 -281 -50 -60 -4
-118 -11 -127 -16 -50 -27 -37 -84 25 -108 32 -12 92 -12 405 -4 202 6 561 8
797 5 785 -10 1029 -9 1058 7 46 24 47 84 3 101 -13 4 -79 11 -147 15 -205 11
-352 31 -408 55 -87 38 -144 117 -170 240 -39 178 -56 627 -56 1455 l0 490
180 7 c485 17 997 155 1345 360 203 119 402 294 522 459 163 221 270 493 309
781 17 128 17 386 0 478 -47 258 -178 508 -359 682 -108 104 -184 156 -326
223 -187 89 -408 146 -676 176 -136 15 -526 17 -950 6 -303 -9 -826 -10 -839
-3 -16 10 -768 15 -798 5z m2152 -333 c231 -51 420 -158 586 -333 189 -198
299 -432 344 -730 20 -132 20 -404 0 -512 -82 -432 -420 -793 -844 -901 -146
-37 -520 -85 -606 -78 l-40 3 0 1235 c0 1353 -3 1279 58 1308 69 33 367 38
502 8z"/>
</g>
</svg>
